<svg version="1" xmlns="http://www.w3.org/2000/svg" width="400" height="400" viewBox="0 0 300.000000 300.000000"><path d="M131.2 1.1c-33.9 4.6-63.9 19.6-88 44C22.1 66.6 8.3 93 2.3 123.5c-2.4 12.5-2.4 40.5 0 53 4.2 21.6 13.5 43.6 25.6 60.5 7.3 10.1 21.3 24.7 31.4 32.3 30.2 23.2 70.5 34.2 108.2 29.6 65.6-8 117.3-56.6 130.2-122.4 2.4-12.5 2.4-40.5 0-53-2.8-14.4-7.3-27.5-13.6-40.2C263.2 41.6 225.5 12.7 179.5 3 167.8.6 142.6-.4 131.2 1.1zM178.1 57c15.4 3.3 31.8 10.9 40 18.7l2.7 2.5-5.5 12.6c-3 6.9-5.6 12.9-5.9 13.3-.2.5-4.1-1.7-8.6-4.7-9.8-6.7-16-9.6-26.9-12.3-15.4-3.9-33.5-2.1-45.4 4.5-11.2 6.3-21 19.9-25.1 34.9-2.5 9.3-3 32-.9 43 4.2 22.8 17.2 38.4 36.3 43.6 8.5 2.4 27.1 2.6 35.7.4 7.7-2 22.7-9.2 28.8-13.8 2.6-2.1 5.1-3.7 5.5-3.7.4 0 3.2 6 6.4 13.3l5.6 13.2-2.6 2.3c-25.8 22.5-77.5 28.1-109.6 12C77.8 221.4 61 191 61 151.2c0-47.2 24.5-82 65.3-93.2 15.3-4.2 34.9-4.6 51.8-1z"/></svg>